<?xml version="1.0" encoding="UTF-8"?>
<svg version="1.1" xmlns="http://www.w3.org/2000/svg" width="128" height="128">
43.52 128 0 128 C0 85.76 0 43.52 0 0 Z " fill="#000E20" transform="translate(0,0)"/>
<path d="M0 0 C0.82242188 0.42410156 1.64484375 0.84820313 2.4921875 1.28515625 C13.97721439 7.55130314 22.32775935 17.22666066 26.875 29.5 C28.17516182 34.34675707 28.27692984 39.13704775 28.3125 44.125 C28.31813965 44.87716797 28.3237793 45.62933594 28.32958984 46.40429688 C28.15689694 59.76311735 22.5252162 71.22804035 13.35546875 80.8125 C1.45566388 91.8637284 -11.05349673 94.65713121 -26.81640625 94.13623047 C-39.74709728 93.32950802 -50.36357071 86.25025814 -59 77 C-69.01792489 63.61770634 -71.23329423 50.74819793 -69.76171875 34.34375 C-67.78978939 23.34874992 -60.67862883 14.69258997 -53 7 C-52.49726562 6.48566406 -51.99453125 5.97132812 -51.4765625 5.44140625 C-39.15601653 -5.98892686 -14.37606523 -8.5142379 0 0 Z " fill="#0C8EF2" transform="translate(85,19)"/>
<path d="M0 0 C0.66 0 1.32 0 2 0 C1.195693 12.2656818 -2.70392394 22.53617596 -12.0546875 30.8203125 C-17.82389495 35.32682549 -21.49284236 37 -29 37 C-29 27.76 -29 18.52 -29 9 C-26.23625 8.608125 -23.4725 8.21625 -20.625 7.8125 C-13.44850296 6.69991992 -5.3706619 5.3706619 0 0 Z " fill="#001730" transform="translate(95,69)"/>
<path d="M0 0 C13.00838759 1.18258069 18.44302461 2.9252407 28 11 C28.66 10.67 29.32 10.34 30 10 C31.6167707 13.23354139 31.47631929 15.42760535 31 19 C26.37072731 25.2691091 19.22711966 27.03128508 12 28.6875 C8.02017756 29.10206484 4.00135611 29 0 29 C0 19.43 0 9.86 0 0 Z " fill="#001832" transform="translate(66,45)"/>
<path d="M0 0 C0 9.57 0 19.14 0 29 C-12.52000192 29 -18.42628411 25.8728019 -28 18 C-28.66 18.66 -29.32 19.32 -30 20 C-30.98135722 15.91101159 -31.31517186 13.69885935 -29.5625 9.8125 C-22.24282292 1.77870808 -10.42314719 0 0 0 Z " fill="#001832" transform="translate(62,45)"/>
<path d="M0 0 C2.31 0.33 4.62 0.66 7 1 C7 10.24 7 19.48 7 29 C-4.05921757 27.77119805 -9.52300634 24.56116711 -16.48828125 16.0859375 C-22.17977528 8.23255814 -22.17977528 8.23255814 -21.83203125 3.9140625 C-20.40734943 0.63662545 -17.91779524 -0.07566048 -14.73828125 -1.37890625 C-9.65573954 -2.53172242 -4.98774575 -1.12647521 0 0 Z " fill="#001730" transform="translate(55,77)"/>
<path d="M0 0 C0 6.93 0 13.86 0 21 C-1.588125 21.103125 -3.17625 21.20625 -4.8125 21.3125 C-13.46558396 22.11536346 -20.9770149 23.77778031 -28 29 C-28.66 29 -29.32 29 -30 29 C-29.25905906 19.36776784 -22.80652094 11.41978679 -16 5 C-10.67616439 1.50217508 -6.42778057 0 0 0 Z " fill="#001832" transform="translate(62,21)"/>
<path d="M0 0 C11.03866805 1.37983351 16.70140984 4.9667591 23.87109375 13.2890625 C25.11678037 15.17698893 25.58027931 16.79043592 26 19 C20.02714604 23.24664244 16.16871108 23.32817524 9.0625 22.25 C6.071875 21.8375 3.08125 21.425 0 21 C0 14.07 0 7.14 0 0 Z " fill="#001832" transform="translate(66,21)"/>
<path d="M0 0 C8.49873302 3.82990115 12.6483905 12.71377325 16 21 C18.76386723 33.47070212 17.7998015 46.09385514 11.12890625 57.08203125 C7.83874387 61.82757737 5.16327943 65.261217 0 68 C0.268125 67.46761719 0.53625 66.93523437 0.8125 66.38671875 C2.2297696 63.53819333 3.62808514 60.68323185 5 57.8125 C5.7734375 56.21341797 5.7734375 56.21341797 6.5625 54.58203125 C11.75740248 41.6371248 11.9617629 26.00107935 7.2890625 12.890625 C5.25652954 8.33282381 2.79578298 4.12843954 0 0 Z " fill="#001730" transform="translate(90,30)"/>
<path d="M0 0 C0.66 0.33 1.32 0.66 2 1 C1.51789062 1.9178125 1.03578125 2.835625 0.5390625 3.78125 C-0.09939492 5.02060852 -0.73739102 6.26020477 -1.375 7.5 C-1.69210938 8.10070313 -2.00921875 8.70140625 -2.3359375 9.3203125 C-6.02285858 16.54053295 -7.35986494 23.2976188 -7.25 31.375 C-7.24105713 32.12177002 -7.23211426 32.86854004 -7.22290039 33.63793945 C-6.97693462 45.37675158 -3.49542011 53.7090482 2 64 C2.67182958 65.33073936 3.34125005 66.6627376 4 68 C-4.99617184 60.64638762 -10.89224006 52.34887336 -14 41 C-15.11153895 28.03635387 -13.90257224 17.13934038 -5.4609375 6.7265625 C-4.97882812 6.15679687 -4.49671875 5.58703125 -4 5 C-3.21625 4.01 -2.4325 3.02 -1.625 2 C-1.08875 1.34 -0.5525 0.68 0 0 Z " fill="#001730" transform="translate(35,31)"/>
<path d="M0 0 C6.51766849 2.87171571 10.20010099 8.62245226 13 15 C12.01 15 11.02 15 10 15 C9.67 16.32 9.34 17.64 9 19 C8.76925781 18.29875 8.53851563 17.5975 8.30078125 16.875 C6.17923537 10.70323016 3.74172841 5.35189843 0 0 Z " fill="#011B36" transform="translate(90,30)"/>
<path d="M0 0 C0.33 0 0.66 0 1 0 C1 5.28 1 10.56 1 16 C-1.31 15.67 -3.62 15.34 -6 15 C-5.01 13.68 -4.02 12.36 -3 11 C-2.34 11.33 -1.68 11.66 -1 12 C-0.67 8.04 -0.34 4.08 0 0 Z " fill="#001125" transform="translate(61,90)"/>
<path d="M0 0 C2.04992059 2.58937338 3.89230354 5.29320546 5.6875 8.0625 C6.12449219 8.73410156 6.56148437 9.40570313 7.01171875 10.09765625 C8 12 8 12 8 15 C6.45869965 13.64798215 4.94245028 12.26736622 3.4375 10.875 C2.59058594 10.10929687 1.74367188 9.34359375 0.87109375 8.5546875 C-1 6 -1 6 -0.77734375 2.6953125 C-0.52082031 1.80585937 -0.26429687 0.91640625 0 0 Z " fill="#011F3C" transform="translate(30,84)"/>
<path d="M0 0 C0.33 0.66 0.66 1.32 1 2 C1.66 2 2.32 2 3 2 C3 1.34 3 0.68 3 0 C3.66 0.33 4.32 0.66 5 1 C-0.96583144 9.6309795 -0.96583144 9.6309795 -6 12 C-4 8 -2 4 0 0 Z " fill="#011F3C" transform="translate(96,86)"/>
<path d="M0 0 C0.66 0.33 1.32 0.66 2 1 C-0.475 5.455 -0.475 5.455 -3 10 C-3.33 9.34 -3.66 8.68 -4 8 C-4.66 7.67 -5.32 7.34 -6 7 C-4.02 4.69 -2.04 2.38 0 0 Z " fill="#022646" transform="translate(35,31)"/>
<path d="M0 0 C4.0084034 2.0042017 5.41409657 3.49055963 8 7 C7.01 7.33 6.02 7.66 5 8 C2.525 4.04 2.525 4.04 0 0 Z " fill="#03345C" transform="translate(90,30)"/>
</svg>
