<?xml version="1.0" encoding="UTF-8"?>
<!DOCTYPE svg PUBLIC "-//W3C//DTD SVG 1.1//EN" "http://www.w3.org/Graphics/SVG/1.1/DTD/svg11.dtd">
<!-- Creator: CorelDRAW -->
<svg xmlns="http://www.w3.org/2000/svg" xml:space="preserve" width="210mm" height="297mm" style="shape-rendering:geometricPrecision; text-rendering:geometricPrecision; image-rendering:optimizeQuality; fill-rule:evenodd; clip-rule:evenodd"
viewBox="0 0 210 297"
 xmlns:xlink="http://www.w3.org/1999/xlink"
 aria-hidden="true"
 focusable="false"
 data-prefix="fas"
 data-icon="handshake"
 role="img">
 <defs>
  <style type="text/css">
   <![CDATA[
    .fil0 {fill:#169AFF}
   ]]>
  </style>
 </defs>
 <g id="Layer_x0020_1">
  <metadata id="CorelCorpID_0Corel-Layer"/>
  <path class="fil0" d="M142.636 85.5l-28.1859 0c-2.625,0 -5.1516,0.9844 -7.0875,2.7563l-32.2547 29.5313c-0.0328,0.0328 -0.0656,0.0984 -0.0984,0.1313 -5.4469,5.1188 -5.3484,13.2891 -0.6891,18.375 4.1672,4.5609 12.9281,5.775 18.4078,0.8859 0.0328,-0.0328 0.0984,-0.0328 0.1313,-0.0656l26.2172 -24.0188c2.1328,-1.9359 5.4797,-1.8047 7.4156,0.3281 1.9688,2.1328 1.8047,5.4469 -0.3281,7.4156l-8.5641 7.8422 47.775 38.7843c0.9516,0.7875 1.8047,1.6406 2.5922,2.5266l0 -63.4922 -17.9156 -17.9156c-1.9359,-1.9688 -4.6266,-3.0844 -7.4156,-3.0844l-0.0001 0zm35.8641 21.0656l0 73.4672c0,5.8078 4.6922,10.5 10.5,10.5l21 0 0 -83.9672 -31.5 0zm15.75 73.4672c-2.8875,0 -5.25,-2.3625 -5.25,-5.25 0,-2.8875 2.3625,-5.25 5.25,-5.25 2.8875,0 5.25,2.3625 5.25,5.25 0,2.8875 -2.3625,5.25 -5.25,5.25zm-194.25 10.4672l21 0c5.8078,0 10.5,-4.6922 10.5,-10.5l0 -73.4344 -31.5 0 0 83.9344zm15.75 -20.9672c2.8875,0 5.25,2.3625 5.25,5.25 0,2.8875 -2.3625,5.25 -5.25,5.25 -2.8875,0 -5.25,-2.3625 -5.25,-5.25 0,-2.9203 2.3625,-5.25 5.25,-5.25zm143.03 6.1031l-48.9891 -39.7687 -9.8438 9.0234c-9.7453,8.8922 -24.675,8.0391 -33.3703,-1.4438 -8.8266,-9.6469 -8.1375,-24.5766 1.4438,-33.3703l26.8406 -24.5765 -27.4968 0c-2.7891,0 -5.4469,1.1156 -7.4156,3.0844l-17.9485 17.9156 0 73.4672 6.0047 0 29.6953 26.8734c8.9906,7.3172 22.2141,5.9391 29.5313,-3.0516l0.0656 -0.0656 5.8734 5.0859c5.2172,4.2656 12.9281,3.4453 17.1609,-1.7719l10.3031 -12.6656 1.7719 1.4438c4.4953,3.6422 11.1234,2.9859 14.7656,-1.5422l3.1172 -3.8391c3.675,-4.5281 2.9859,-11.1234 -1.5094,-14.7984l0.0001 0z"/>
 </g>
</svg>
